<mxfile host="app.diagrams.net" modified="2021-03-15T12:34:23.176Z" agent="5.0 (Macintosh; Intel Mac OS X 10_15_7) AppleWebKit/537.36 (KHTML, like Gecko) Chrome/88.0.4324.192 Safari/537.36" etag="bZ0nnOMhR_Rg3YbSUM14" version="14.4.4" type="github" pages="4">
  <diagram id="LQYuwIkNAtEPhlzlhWlT" name="Page-1">
    <mxGraphModel dx="1270" dy="784" grid="1" gridSize="10" guides="1" tooltips="1" connect="1" arrows="1" fold="1" page="1" pageScale="1" pageWidth="827" pageHeight="1169" math="0" shadow="0">
      <root>
        <mxCell id="0" />
        <mxCell id="1" parent="0" />
        <mxCell id="_y2QlbybuMvX5DCai_Az-5" value="" style="endArrow=classic;startArrow=classic;html=1;" parent="1" source="_y2QlbybuMvX5DCai_Az-3" edge="1">
          <mxGeometry width="50" height="50" relative="1" as="geometry">
            <mxPoint x="390" y="380" as="sourcePoint" />
            <mxPoint x="420" y="130" as="targetPoint" />
          </mxGeometry>
        </mxCell>
        <mxCell id="_y2QlbybuMvX5DCai_Az-11" value="MySQL" style="edgeLabel;html=1;align=center;verticalAlign=middle;resizable=0;points=[];" parent="_y2QlbybuMvX5DCai_Az-5" vertex="1" connectable="0">
          <mxGeometry x="-0.8182" y="1" relative="1" as="geometry">
            <mxPoint as="offset" />
          </mxGeometry>
        </mxCell>
        <mxCell id="_y2QlbybuMvX5DCai_Az-1" value="openAPI (echo)" style="rounded=1;whiteSpace=wrap;html=1;" parent="1" vertex="1">
          <mxGeometry x="360" y="160" width="120" height="60" as="geometry" />
        </mxCell>
        <mxCell id="_y2QlbybuMvX5DCai_Az-2" value="controller" style="rounded=1;whiteSpace=wrap;html=1;" parent="1" vertex="1">
          <mxGeometry x="360" y="260" width="120" height="60" as="geometry" />
        </mxCell>
        <mxCell id="_y2QlbybuMvX5DCai_Az-3" value="service" style="rounded=1;whiteSpace=wrap;html=1;" parent="1" vertex="1">
          <mxGeometry x="360" y="390" width="120" height="60" as="geometry" />
        </mxCell>
        <mxCell id="_y2QlbybuMvX5DCai_Az-4" value="Model&lt;br&gt;Common&lt;br&gt;Configure" style="rounded=1;whiteSpace=wrap;html=1;" parent="1" vertex="1">
          <mxGeometry x="240" y="260" width="80" height="60" as="geometry" />
        </mxCell>
        <mxCell id="_y2QlbybuMvX5DCai_Az-6" value="" style="endArrow=classic;startArrow=classic;html=1;exitX=1;exitY=0.5;exitDx=0;exitDy=0;" parent="1" source="_y2QlbybuMvX5DCai_Az-4" edge="1">
          <mxGeometry width="50" height="50" relative="1" as="geometry">
            <mxPoint x="450" y="380" as="sourcePoint" />
            <mxPoint x="360" y="300" as="targetPoint" />
          </mxGeometry>
        </mxCell>
        <mxCell id="_y2QlbybuMvX5DCai_Az-7" value="" style="endArrow=classic;startArrow=classic;html=1;exitX=1;exitY=0.5;exitDx=0;exitDy=0;entryX=0;entryY=0.25;entryDx=0;entryDy=0;" parent="1" source="_y2QlbybuMvX5DCai_Az-4" target="_y2QlbybuMvX5DCai_Az-3" edge="1">
          <mxGeometry width="50" height="50" relative="1" as="geometry">
            <mxPoint x="450" y="380" as="sourcePoint" />
            <mxPoint x="500" y="330" as="targetPoint" />
          </mxGeometry>
        </mxCell>
        <mxCell id="_y2QlbybuMvX5DCai_Az-8" value="service" style="rounded=1;whiteSpace=wrap;html=1;" parent="1" vertex="1">
          <mxGeometry x="530" y="390" width="120" height="60" as="geometry" />
        </mxCell>
        <mxCell id="_y2QlbybuMvX5DCai_Az-10" value="" style="endArrow=classic;html=1;exitX=0.7;exitY=1.017;exitDx=0;exitDy=0;exitPerimeter=0;entryX=0.5;entryY=0;entryDx=0;entryDy=0;" parent="1" source="_y2QlbybuMvX5DCai_Az-2" target="_y2QlbybuMvX5DCai_Az-8" edge="1">
          <mxGeometry width="50" height="50" relative="1" as="geometry">
            <mxPoint x="450" y="380" as="sourcePoint" />
            <mxPoint x="500" y="330" as="targetPoint" />
          </mxGeometry>
        </mxCell>
        <mxCell id="_y2QlbybuMvX5DCai_Az-12" value="PG" style="edgeLabel;html=1;align=center;verticalAlign=middle;resizable=0;points=[];" parent="_y2QlbybuMvX5DCai_Az-10" vertex="1" connectable="0">
          <mxGeometry x="-0.2305" y="4" relative="1" as="geometry">
            <mxPoint as="offset" />
          </mxGeometry>
        </mxCell>
        <mxCell id="_y2QlbybuMvX5DCai_Az-13" value="TPaaS" style="rounded=1;whiteSpace=wrap;html=1;" parent="1" vertex="1">
          <mxGeometry x="310" y="524.5" width="90" height="60" as="geometry" />
        </mxCell>
        <mxCell id="_y2QlbybuMvX5DCai_Az-14" value="Cloud" style="rounded=1;whiteSpace=wrap;html=1;" parent="1" vertex="1">
          <mxGeometry x="420" y="525" width="90" height="60" as="geometry" />
        </mxCell>
        <mxCell id="_y2QlbybuMvX5DCai_Az-15" value="" style="endArrow=classic;html=1;entryX=0.5;entryY=0;entryDx=0;entryDy=0;exitX=0.25;exitY=1;exitDx=0;exitDy=0;" parent="1" source="_y2QlbybuMvX5DCai_Az-3" target="_y2QlbybuMvX5DCai_Az-13" edge="1">
          <mxGeometry width="50" height="50" relative="1" as="geometry">
            <mxPoint x="450" y="460" as="sourcePoint" />
            <mxPoint x="500" y="410" as="targetPoint" />
          </mxGeometry>
        </mxCell>
      </root>
    </mxGraphModel>
  </diagram>
  <diagram id="_reZ0OVV6VXlU-2gQ6WQ" name="Page-2">
    <mxGraphModel dx="1270" dy="784" grid="1" gridSize="10" guides="1" tooltips="1" connect="1" arrows="1" fold="1" page="1" pageScale="1" pageWidth="827" pageHeight="1169" math="0" shadow="0">
      <root>
        <mxCell id="MTvbhRRMbpR1CiaTC6Bw-0" />
        <mxCell id="MTvbhRRMbpR1CiaTC6Bw-1" parent="MTvbhRRMbpR1CiaTC6Bw-0" />
        <mxCell id="MTvbhRRMbpR1CiaTC6Bw-9" value="京东云华东区" style="rounded=1;whiteSpace=wrap;html=1;verticalAlign=top;" parent="MTvbhRRMbpR1CiaTC6Bw-1" vertex="1">
          <mxGeometry x="550" y="40" width="270" height="320" as="geometry" />
        </mxCell>
        <mxCell id="MTvbhRRMbpR1CiaTC6Bw-10" value="数据传输服务DTS" style="rounded=1;whiteSpace=wrap;html=1;" parent="MTvbhRRMbpR1CiaTC6Bw-1" vertex="1">
          <mxGeometry x="570" y="90" width="80" height="80" as="geometry" />
        </mxCell>
        <mxCell id="MTvbhRRMbpR1CiaTC6Bw-11" value="云数据库" style="rounded=1;whiteSpace=wrap;html=1;" parent="MTvbhRRMbpR1CiaTC6Bw-1" vertex="1">
          <mxGeometry x="720" y="90" width="80" height="80" as="geometry" />
        </mxCell>
        <mxCell id="MTvbhRRMbpR1CiaTC6Bw-12" value="京东云华北区" style="rounded=1;whiteSpace=wrap;html=1;verticalAlign=top;" parent="MTvbhRRMbpR1CiaTC6Bw-1" vertex="1">
          <mxGeometry x="240" y="40" width="270" height="330" as="geometry" />
        </mxCell>
        <mxCell id="MTvbhRRMbpR1CiaTC6Bw-13" value="数据传输服务DTS" style="rounded=1;whiteSpace=wrap;html=1;" parent="MTvbhRRMbpR1CiaTC6Bw-1" vertex="1">
          <mxGeometry x="260" y="90" width="80" height="80" as="geometry" />
        </mxCell>
        <mxCell id="MTvbhRRMbpR1CiaTC6Bw-24" style="edgeStyle=orthogonalEdgeStyle;rounded=0;orthogonalLoop=1;jettySize=auto;html=1;exitX=0.5;exitY=1;exitDx=0;exitDy=0;entryX=0;entryY=0.5;entryDx=0;entryDy=0;" parent="MTvbhRRMbpR1CiaTC6Bw-1" source="MTvbhRRMbpR1CiaTC6Bw-14" target="MTvbhRRMbpR1CiaTC6Bw-15" edge="1">
          <mxGeometry relative="1" as="geometry" />
        </mxCell>
        <mxCell id="MTvbhRRMbpR1CiaTC6Bw-29" value="备份" style="edgeLabel;html=1;align=center;verticalAlign=middle;resizable=0;points=[];" parent="MTvbhRRMbpR1CiaTC6Bw-24" vertex="1" connectable="0">
          <mxGeometry x="-0.3909" y="2" relative="1" as="geometry">
            <mxPoint as="offset" />
          </mxGeometry>
        </mxCell>
        <mxCell id="MTvbhRRMbpR1CiaTC6Bw-14" value="云数据库/云主机自建数据库" style="rounded=1;whiteSpace=wrap;html=1;" parent="MTvbhRRMbpR1CiaTC6Bw-1" vertex="1">
          <mxGeometry x="410" y="90" width="80" height="80" as="geometry" />
        </mxCell>
        <mxCell id="MTvbhRRMbpR1CiaTC6Bw-15" value="数据备份服务DBS" style="rounded=1;whiteSpace=wrap;html=1;" parent="MTvbhRRMbpR1CiaTC6Bw-1" vertex="1">
          <mxGeometry x="570" y="230" width="80" height="80" as="geometry" />
        </mxCell>
        <mxCell id="MTvbhRRMbpR1CiaTC6Bw-16" value="OSS" style="rounded=1;whiteSpace=wrap;html=1;" parent="MTvbhRRMbpR1CiaTC6Bw-1" vertex="1">
          <mxGeometry x="720" y="230" width="80" height="80" as="geometry" />
        </mxCell>
        <mxCell id="MTvbhRRMbpR1CiaTC6Bw-18" value="" style="endArrow=classic;startArrow=classic;html=1;entryX=0;entryY=0.5;entryDx=0;entryDy=0;" parent="MTvbhRRMbpR1CiaTC6Bw-1" source="MTvbhRRMbpR1CiaTC6Bw-15" target="MTvbhRRMbpR1CiaTC6Bw-16" edge="1">
          <mxGeometry width="50" height="50" relative="1" as="geometry">
            <mxPoint x="390" y="330" as="sourcePoint" />
            <mxPoint x="440" y="280" as="targetPoint" />
          </mxGeometry>
        </mxCell>
        <mxCell id="MTvbhRRMbpR1CiaTC6Bw-25" value="恢复" style="edgeStyle=orthogonalEdgeStyle;rounded=0;orthogonalLoop=1;jettySize=auto;html=1;entryX=0.5;entryY=1;entryDx=0;entryDy=0;" parent="MTvbhRRMbpR1CiaTC6Bw-1" source="MTvbhRRMbpR1CiaTC6Bw-15" target="MTvbhRRMbpR1CiaTC6Bw-19" edge="1">
          <mxGeometry x="-0.1525" relative="1" as="geometry">
            <Array as="points">
              <mxPoint x="100" y="290" />
            </Array>
            <mxPoint as="offset" />
          </mxGeometry>
        </mxCell>
        <mxCell id="MTvbhRRMbpR1CiaTC6Bw-19" value="本地&lt;br&gt;数据库" style="rounded=1;whiteSpace=wrap;html=1;" parent="MTvbhRRMbpR1CiaTC6Bw-1" vertex="1">
          <mxGeometry x="60" y="90" width="80" height="80" as="geometry" />
        </mxCell>
        <mxCell id="MTvbhRRMbpR1CiaTC6Bw-20" value="" style="endArrow=classic;startArrow=classic;html=1;entryX=0;entryY=0.5;entryDx=0;entryDy=0;" parent="MTvbhRRMbpR1CiaTC6Bw-1" source="MTvbhRRMbpR1CiaTC6Bw-19" target="MTvbhRRMbpR1CiaTC6Bw-13" edge="1">
          <mxGeometry width="50" height="50" relative="1" as="geometry">
            <mxPoint x="390" y="330" as="sourcePoint" />
            <mxPoint x="440" y="280" as="targetPoint" />
          </mxGeometry>
        </mxCell>
        <mxCell id="MTvbhRRMbpR1CiaTC6Bw-30" value="同步" style="edgeLabel;html=1;align=center;verticalAlign=middle;resizable=0;points=[];" parent="MTvbhRRMbpR1CiaTC6Bw-20" vertex="1" connectable="0">
          <mxGeometry x="-0.0333" y="-2" relative="1" as="geometry">
            <mxPoint y="-2" as="offset" />
          </mxGeometry>
        </mxCell>
        <mxCell id="MTvbhRRMbpR1CiaTC6Bw-21" value="" style="endArrow=classic;startArrow=classic;html=1;entryX=0;entryY=0.5;entryDx=0;entryDy=0;exitX=1;exitY=0.5;exitDx=0;exitDy=0;" parent="MTvbhRRMbpR1CiaTC6Bw-1" source="MTvbhRRMbpR1CiaTC6Bw-13" target="MTvbhRRMbpR1CiaTC6Bw-14" edge="1">
          <mxGeometry width="50" height="50" relative="1" as="geometry">
            <mxPoint x="390" y="330" as="sourcePoint" />
            <mxPoint x="440" y="280" as="targetPoint" />
          </mxGeometry>
        </mxCell>
        <mxCell id="MTvbhRRMbpR1CiaTC6Bw-31" value="同步" style="edgeLabel;html=1;align=center;verticalAlign=middle;resizable=0;points=[];" parent="MTvbhRRMbpR1CiaTC6Bw-21" vertex="1" connectable="0">
          <mxGeometry x="0.1714" y="-3" relative="1" as="geometry">
            <mxPoint y="-3" as="offset" />
          </mxGeometry>
        </mxCell>
        <mxCell id="MTvbhRRMbpR1CiaTC6Bw-22" value="" style="endArrow=classic;startArrow=classic;html=1;entryX=0;entryY=0.5;entryDx=0;entryDy=0;" parent="MTvbhRRMbpR1CiaTC6Bw-1" source="MTvbhRRMbpR1CiaTC6Bw-14" target="MTvbhRRMbpR1CiaTC6Bw-10" edge="1">
          <mxGeometry width="50" height="50" relative="1" as="geometry">
            <mxPoint x="390" y="330" as="sourcePoint" />
            <mxPoint x="440" y="280" as="targetPoint" />
          </mxGeometry>
        </mxCell>
        <mxCell id="MTvbhRRMbpR1CiaTC6Bw-32" value="同步" style="edgeLabel;html=1;align=center;verticalAlign=middle;resizable=0;points=[];" parent="MTvbhRRMbpR1CiaTC6Bw-22" vertex="1" connectable="0">
          <mxGeometry x="-0.025" y="-1" relative="1" as="geometry">
            <mxPoint y="-1" as="offset" />
          </mxGeometry>
        </mxCell>
        <mxCell id="MTvbhRRMbpR1CiaTC6Bw-23" value="同步" style="endArrow=classic;startArrow=classic;html=1;entryX=0;entryY=0.5;entryDx=0;entryDy=0;" parent="MTvbhRRMbpR1CiaTC6Bw-1" source="MTvbhRRMbpR1CiaTC6Bw-10" target="MTvbhRRMbpR1CiaTC6Bw-11" edge="1">
          <mxGeometry width="50" height="50" relative="1" as="geometry">
            <mxPoint x="390" y="330" as="sourcePoint" />
            <mxPoint x="440" y="280" as="targetPoint" />
          </mxGeometry>
        </mxCell>
        <mxCell id="MTvbhRRMbpR1CiaTC6Bw-26" value="数据实时同步到异地数据库" style="text;html=1;strokeColor=none;fillColor=none;align=center;verticalAlign=middle;whiteSpace=wrap;rounded=0;" parent="MTvbhRRMbpR1CiaTC6Bw-1" vertex="1">
          <mxGeometry x="565" y="180" width="90" height="20" as="geometry" />
        </mxCell>
        <mxCell id="MTvbhRRMbpR1CiaTC6Bw-28" value="恢复" style="endArrow=classic;html=1;entryX=0.5;entryY=1;entryDx=0;entryDy=0;" parent="MTvbhRRMbpR1CiaTC6Bw-1" source="MTvbhRRMbpR1CiaTC6Bw-16" target="MTvbhRRMbpR1CiaTC6Bw-11" edge="1">
          <mxGeometry width="50" height="50" relative="1" as="geometry">
            <mxPoint x="410" y="270" as="sourcePoint" />
            <mxPoint x="460" y="220" as="targetPoint" />
          </mxGeometry>
        </mxCell>
        <mxCell id="MTvbhRRMbpR1CiaTC6Bw-33" value="数据实时同步到异地OSS" style="text;html=1;strokeColor=none;fillColor=none;align=center;verticalAlign=middle;whiteSpace=wrap;rounded=0;" parent="MTvbhRRMbpR1CiaTC6Bw-1" vertex="1">
          <mxGeometry x="570" y="320" width="90" height="20" as="geometry" />
        </mxCell>
      </root>
    </mxGraphModel>
  </diagram>
  <diagram id="iV6qek5d4jx7JkmqoHsX" name="Page-3">
    <mxGraphModel dx="1270" dy="784" grid="1" gridSize="10" guides="1" tooltips="1" connect="1" arrows="1" fold="1" page="1" pageScale="1" pageWidth="827" pageHeight="1169" math="0" shadow="0">
      <root>
        <mxCell id="lkrJeqDwDnSgzOYhjCxq-0" />
        <mxCell id="lkrJeqDwDnSgzOYhjCxq-1" parent="lkrJeqDwDnSgzOYhjCxq-0" />
        <mxCell id="lkrJeqDwDnSgzOYhjCxq-28" value="机房B Standby" style="rounded=1;whiteSpace=wrap;html=1;verticalAlign=top;" parent="lkrJeqDwDnSgzOYhjCxq-1" vertex="1">
          <mxGeometry x="1270" y="180" width="230" height="430" as="geometry" />
        </mxCell>
        <mxCell id="lkrJeqDwDnSgzOYhjCxq-49" value="" style="rounded=1;whiteSpace=wrap;html=1;" parent="lkrJeqDwDnSgzOYhjCxq-1" vertex="1">
          <mxGeometry x="1280" y="450" width="210" height="130" as="geometry" />
        </mxCell>
        <mxCell id="lkrJeqDwDnSgzOYhjCxq-23" value="机房A Active" style="rounded=1;whiteSpace=wrap;html=1;verticalAlign=top;" parent="lkrJeqDwDnSgzOYhjCxq-1" vertex="1">
          <mxGeometry x="910" y="180" width="230" height="430" as="geometry" />
        </mxCell>
        <mxCell id="lkrJeqDwDnSgzOYhjCxq-33" value="" style="rounded=1;whiteSpace=wrap;html=1;" parent="lkrJeqDwDnSgzOYhjCxq-1" vertex="1">
          <mxGeometry x="921" y="450" width="210" height="130" as="geometry" />
        </mxCell>
        <mxCell id="lkrJeqDwDnSgzOYhjCxq-12" value="控制面" style="rounded=1;whiteSpace=wrap;html=1;align=left;" parent="lkrJeqDwDnSgzOYhjCxq-1" vertex="1">
          <mxGeometry x="327" y="520" width="470" height="80" as="geometry" />
        </mxCell>
        <mxCell id="lkrJeqDwDnSgzOYhjCxq-15" style="edgeStyle=orthogonalEdgeStyle;rounded=0;orthogonalLoop=1;jettySize=auto;html=1;exitX=0.5;exitY=1;exitDx=0;exitDy=0;entryX=0.75;entryY=0;entryDx=0;entryDy=0;" parent="lkrJeqDwDnSgzOYhjCxq-1" source="lkrJeqDwDnSgzOYhjCxq-5" target="lkrJeqDwDnSgzOYhjCxq-13" edge="1">
          <mxGeometry relative="1" as="geometry" />
        </mxCell>
        <mxCell id="lkrJeqDwDnSgzOYhjCxq-5" value="机房B Active" style="rounded=1;whiteSpace=wrap;html=1;verticalAlign=top;" parent="lkrJeqDwDnSgzOYhjCxq-1" vertex="1">
          <mxGeometry x="627" y="200" width="200" height="260" as="geometry" />
        </mxCell>
        <mxCell id="lkrJeqDwDnSgzOYhjCxq-14" style="edgeStyle=orthogonalEdgeStyle;rounded=0;orthogonalLoop=1;jettySize=auto;html=1;exitX=0.75;exitY=1;exitDx=0;exitDy=0;entryX=0.5;entryY=0;entryDx=0;entryDy=0;" parent="lkrJeqDwDnSgzOYhjCxq-1" source="lkrJeqDwDnSgzOYhjCxq-2" target="lkrJeqDwDnSgzOYhjCxq-13" edge="1">
          <mxGeometry relative="1" as="geometry" />
        </mxCell>
        <mxCell id="lkrJeqDwDnSgzOYhjCxq-2" value="机房A Active" style="rounded=1;whiteSpace=wrap;html=1;verticalAlign=top;" parent="lkrJeqDwDnSgzOYhjCxq-1" vertex="1">
          <mxGeometry x="307" y="200" width="230" height="255" as="geometry" />
        </mxCell>
        <mxCell id="lkrJeqDwDnSgzOYhjCxq-10" style="edgeStyle=orthogonalEdgeStyle;rounded=0;orthogonalLoop=1;jettySize=auto;html=1;exitX=1;exitY=0.5;exitDx=0;exitDy=0;exitPerimeter=0;entryX=0;entryY=0;entryDx=0;entryDy=52.5;entryPerimeter=0;" parent="lkrJeqDwDnSgzOYhjCxq-1" source="lkrJeqDwDnSgzOYhjCxq-3" target="lkrJeqDwDnSgzOYhjCxq-8" edge="1">
          <mxGeometry relative="1" as="geometry">
            <Array as="points">
              <mxPoint x="507" y="350" />
              <mxPoint x="592" y="350" />
              <mxPoint x="592" y="413" />
            </Array>
          </mxGeometry>
        </mxCell>
        <mxCell id="lkrJeqDwDnSgzOYhjCxq-22" value="Replica" style="edgeLabel;html=1;align=center;verticalAlign=middle;resizable=0;points=[];" parent="lkrJeqDwDnSgzOYhjCxq-10" vertex="1" connectable="0">
          <mxGeometry x="0.4046" y="1" relative="1" as="geometry">
            <mxPoint as="offset" />
          </mxGeometry>
        </mxCell>
        <mxCell id="lkrJeqDwDnSgzOYhjCxq-11" style="edgeStyle=orthogonalEdgeStyle;rounded=0;orthogonalLoop=1;jettySize=auto;html=1;exitX=1;exitY=0;exitDx=0;exitDy=52.5;exitPerimeter=0;entryX=0;entryY=0.5;entryDx=0;entryDy=0;entryPerimeter=0;" parent="lkrJeqDwDnSgzOYhjCxq-1" source="lkrJeqDwDnSgzOYhjCxq-3" target="lkrJeqDwDnSgzOYhjCxq-7" edge="1">
          <mxGeometry relative="1" as="geometry">
            <Array as="points">
              <mxPoint x="507" y="330" />
              <mxPoint x="592" y="330" />
              <mxPoint x="592" y="300" />
            </Array>
          </mxGeometry>
        </mxCell>
        <mxCell id="lkrJeqDwDnSgzOYhjCxq-21" value="Replica" style="edgeLabel;html=1;align=center;verticalAlign=middle;resizable=0;points=[];" parent="lkrJeqDwDnSgzOYhjCxq-11" vertex="1" connectable="0">
          <mxGeometry x="0.3389" relative="1" as="geometry">
            <mxPoint as="offset" />
          </mxGeometry>
        </mxCell>
        <mxCell id="lkrJeqDwDnSgzOYhjCxq-3" value="RDS-主" style="shape=cylinder3;whiteSpace=wrap;html=1;boundedLbl=1;backgroundOutline=1;size=15;" parent="lkrJeqDwDnSgzOYhjCxq-1" vertex="1">
          <mxGeometry x="447" y="290" width="60" height="80" as="geometry" />
        </mxCell>
        <mxCell id="lkrJeqDwDnSgzOYhjCxq-4" value="RDS-从" style="shape=cylinder3;whiteSpace=wrap;html=1;boundedLbl=1;backgroundOutline=1;size=15;" parent="lkrJeqDwDnSgzOYhjCxq-1" vertex="1">
          <mxGeometry x="327" y="290" width="60" height="80" as="geometry" />
        </mxCell>
        <mxCell id="lkrJeqDwDnSgzOYhjCxq-7" value="RDS-从" style="shape=cylinder3;whiteSpace=wrap;html=1;boundedLbl=1;backgroundOutline=1;size=15;" parent="lkrJeqDwDnSgzOYhjCxq-1" vertex="1">
          <mxGeometry x="697" y="260" width="60" height="80" as="geometry" />
        </mxCell>
        <mxCell id="lkrJeqDwDnSgzOYhjCxq-8" value="RDS-从" style="shape=cylinder3;whiteSpace=wrap;html=1;boundedLbl=1;backgroundOutline=1;size=15;" parent="lkrJeqDwDnSgzOYhjCxq-1" vertex="1">
          <mxGeometry x="697" y="360" width="60" height="80" as="geometry" />
        </mxCell>
        <mxCell id="lkrJeqDwDnSgzOYhjCxq-9" value="" style="endArrow=classic;html=1;entryX=1;entryY=0.5;entryDx=0;entryDy=0;entryPerimeter=0;exitX=0;exitY=0.5;exitDx=0;exitDy=0;exitPerimeter=0;" parent="lkrJeqDwDnSgzOYhjCxq-1" source="lkrJeqDwDnSgzOYhjCxq-3" target="lkrJeqDwDnSgzOYhjCxq-4" edge="1">
          <mxGeometry width="50" height="50" relative="1" as="geometry">
            <mxPoint x="487" y="400" as="sourcePoint" />
            <mxPoint x="537" y="350" as="targetPoint" />
          </mxGeometry>
        </mxCell>
        <mxCell id="lkrJeqDwDnSgzOYhjCxq-13" value="HA" style="rounded=1;whiteSpace=wrap;html=1;" parent="lkrJeqDwDnSgzOYhjCxq-1" vertex="1">
          <mxGeometry x="487" y="530" width="120" height="60" as="geometry" />
        </mxCell>
        <mxCell id="lkrJeqDwDnSgzOYhjCxq-18" style="edgeStyle=orthogonalEdgeStyle;rounded=0;orthogonalLoop=1;jettySize=auto;html=1;exitX=0.25;exitY=1;exitDx=0;exitDy=0;entryX=0.75;entryY=0;entryDx=0;entryDy=0;" parent="lkrJeqDwDnSgzOYhjCxq-1" source="lkrJeqDwDnSgzOYhjCxq-16" target="lkrJeqDwDnSgzOYhjCxq-2" edge="1">
          <mxGeometry relative="1" as="geometry" />
        </mxCell>
        <mxCell id="lkrJeqDwDnSgzOYhjCxq-19" style="edgeStyle=orthogonalEdgeStyle;rounded=0;orthogonalLoop=1;jettySize=auto;html=1;exitX=0.75;exitY=1;exitDx=0;exitDy=0;dashed=1;" parent="lkrJeqDwDnSgzOYhjCxq-1" source="lkrJeqDwDnSgzOYhjCxq-16" target="lkrJeqDwDnSgzOYhjCxq-5" edge="1">
          <mxGeometry relative="1" as="geometry" />
        </mxCell>
        <mxCell id="lkrJeqDwDnSgzOYhjCxq-16" value="LB" style="rounded=1;whiteSpace=wrap;html=1;" parent="lkrJeqDwDnSgzOYhjCxq-1" vertex="1">
          <mxGeometry x="527" y="110" width="120" height="50" as="geometry" />
        </mxCell>
        <mxCell id="lkrJeqDwDnSgzOYhjCxq-17" value="应用程序" style="rounded=1;whiteSpace=wrap;html=1;" parent="lkrJeqDwDnSgzOYhjCxq-1" vertex="1">
          <mxGeometry x="527" y="10" width="120" height="60" as="geometry" />
        </mxCell>
        <mxCell id="lkrJeqDwDnSgzOYhjCxq-20" value="" style="endArrow=classic;startArrow=classic;html=1;exitX=0.5;exitY=0;exitDx=0;exitDy=0;entryX=0.5;entryY=1;entryDx=0;entryDy=0;" parent="lkrJeqDwDnSgzOYhjCxq-1" source="lkrJeqDwDnSgzOYhjCxq-16" target="lkrJeqDwDnSgzOYhjCxq-17" edge="1">
          <mxGeometry width="50" height="50" relative="1" as="geometry">
            <mxPoint x="607" y="80" as="sourcePoint" />
            <mxPoint x="657" y="30" as="targetPoint" />
          </mxGeometry>
        </mxCell>
        <mxCell id="lkrJeqDwDnSgzOYhjCxq-24" value="RDS-主" style="shape=cylinder3;whiteSpace=wrap;html=1;boundedLbl=1;backgroundOutline=1;size=15;" parent="lkrJeqDwDnSgzOYhjCxq-1" vertex="1">
          <mxGeometry x="1050" y="475" width="60" height="80" as="geometry" />
        </mxCell>
        <mxCell id="lkrJeqDwDnSgzOYhjCxq-25" value="RDS-从" style="shape=cylinder3;whiteSpace=wrap;html=1;boundedLbl=1;backgroundOutline=1;size=15;" parent="lkrJeqDwDnSgzOYhjCxq-1" vertex="1">
          <mxGeometry x="930" y="475" width="60" height="80" as="geometry" />
        </mxCell>
        <mxCell id="lkrJeqDwDnSgzOYhjCxq-26" value="" style="endArrow=classic;html=1;entryX=1;entryY=0.5;entryDx=0;entryDy=0;entryPerimeter=0;exitX=0;exitY=0.5;exitDx=0;exitDy=0;exitPerimeter=0;" parent="lkrJeqDwDnSgzOYhjCxq-1" source="lkrJeqDwDnSgzOYhjCxq-24" target="lkrJeqDwDnSgzOYhjCxq-25" edge="1">
          <mxGeometry width="50" height="50" relative="1" as="geometry">
            <mxPoint x="1090" y="585" as="sourcePoint" />
            <mxPoint x="1140" y="535" as="targetPoint" />
          </mxGeometry>
        </mxCell>
        <mxCell id="lkrJeqDwDnSgzOYhjCxq-29" value="RDS-从" style="shape=cylinder3;whiteSpace=wrap;html=1;boundedLbl=1;backgroundOutline=1;size=15;" parent="lkrJeqDwDnSgzOYhjCxq-1" vertex="1">
          <mxGeometry x="1410" y="470" width="60" height="80" as="geometry" />
        </mxCell>
        <mxCell id="lkrJeqDwDnSgzOYhjCxq-30" value="RDS-主" style="shape=cylinder3;whiteSpace=wrap;html=1;boundedLbl=1;backgroundOutline=1;size=15;" parent="lkrJeqDwDnSgzOYhjCxq-1" vertex="1">
          <mxGeometry x="1290" y="470" width="60" height="80" as="geometry" />
        </mxCell>
        <mxCell id="lkrJeqDwDnSgzOYhjCxq-32" value="" style="endArrow=classic;html=1;entryX=0;entryY=0.5;entryDx=0;entryDy=0;entryPerimeter=0;exitX=1;exitY=0.5;exitDx=0;exitDy=0;exitPerimeter=0;" parent="lkrJeqDwDnSgzOYhjCxq-1" source="lkrJeqDwDnSgzOYhjCxq-30" target="lkrJeqDwDnSgzOYhjCxq-29" edge="1">
          <mxGeometry width="50" height="50" relative="1" as="geometry">
            <mxPoint x="730" y="400" as="sourcePoint" />
            <mxPoint x="780" y="350" as="targetPoint" />
          </mxGeometry>
        </mxCell>
        <mxCell id="lkrJeqDwDnSgzOYhjCxq-34" value="DRDS集群" style="rounded=1;whiteSpace=wrap;html=1;" parent="lkrJeqDwDnSgzOYhjCxq-1" vertex="1">
          <mxGeometry x="961" y="330" width="130" height="70" as="geometry" />
        </mxCell>
        <mxCell id="lkrJeqDwDnSgzOYhjCxq-35" value="DRDS集群" style="rounded=1;whiteSpace=wrap;html=1;" parent="lkrJeqDwDnSgzOYhjCxq-1" vertex="1">
          <mxGeometry x="1325" y="330" width="130" height="70" as="geometry" />
        </mxCell>
        <mxCell id="lkrJeqDwDnSgzOYhjCxq-36" value="DNS域名解析" style="rounded=1;whiteSpace=wrap;html=1;" parent="lkrJeqDwDnSgzOYhjCxq-1" vertex="1">
          <mxGeometry x="1140" y="100" width="120" height="50" as="geometry" />
        </mxCell>
        <mxCell id="lkrJeqDwDnSgzOYhjCxq-50" value="" style="edgeStyle=orthogonalEdgeStyle;rounded=0;orthogonalLoop=1;jettySize=auto;html=1;" parent="lkrJeqDwDnSgzOYhjCxq-1" source="lkrJeqDwDnSgzOYhjCxq-37" target="lkrJeqDwDnSgzOYhjCxq-34" edge="1">
          <mxGeometry relative="1" as="geometry" />
        </mxCell>
        <mxCell id="lkrJeqDwDnSgzOYhjCxq-37" value="LB" style="rounded=1;whiteSpace=wrap;html=1;" parent="lkrJeqDwDnSgzOYhjCxq-1" vertex="1">
          <mxGeometry x="966" y="220" width="120" height="50" as="geometry" />
        </mxCell>
        <mxCell id="lkrJeqDwDnSgzOYhjCxq-38" value="LB" style="rounded=1;whiteSpace=wrap;html=1;" parent="lkrJeqDwDnSgzOYhjCxq-1" vertex="1">
          <mxGeometry x="1330" y="220" width="120" height="50" as="geometry" />
        </mxCell>
        <mxCell id="lkrJeqDwDnSgzOYhjCxq-41" style="edgeStyle=orthogonalEdgeStyle;rounded=0;orthogonalLoop=1;jettySize=auto;html=1;exitX=0.25;exitY=1;exitDx=0;exitDy=0;entryX=0.5;entryY=0;entryDx=0;entryDy=0;" parent="lkrJeqDwDnSgzOYhjCxq-1" source="lkrJeqDwDnSgzOYhjCxq-36" target="lkrJeqDwDnSgzOYhjCxq-37" edge="1">
          <mxGeometry relative="1" as="geometry">
            <mxPoint x="434" y="350" as="sourcePoint" />
            <mxPoint x="372.5" y="395" as="targetPoint" />
            <Array as="points">
              <mxPoint x="1170" y="160" />
              <mxPoint x="1026" y="160" />
            </Array>
          </mxGeometry>
        </mxCell>
        <mxCell id="lkrJeqDwDnSgzOYhjCxq-42" style="edgeStyle=orthogonalEdgeStyle;rounded=0;orthogonalLoop=1;jettySize=auto;html=1;exitX=0.75;exitY=1;exitDx=0;exitDy=0;dashed=1;" parent="lkrJeqDwDnSgzOYhjCxq-1" source="lkrJeqDwDnSgzOYhjCxq-36" target="lkrJeqDwDnSgzOYhjCxq-38" edge="1">
          <mxGeometry relative="1" as="geometry">
            <mxPoint x="494" y="350" as="sourcePoint" />
            <mxPoint x="620" y="400" as="targetPoint" />
            <Array as="points">
              <mxPoint x="1230" y="160" />
              <mxPoint x="1390" y="160" />
            </Array>
          </mxGeometry>
        </mxCell>
        <mxCell id="lkrJeqDwDnSgzOYhjCxq-43" value="应用程序" style="rounded=1;whiteSpace=wrap;html=1;" parent="lkrJeqDwDnSgzOYhjCxq-1" vertex="1">
          <mxGeometry x="1140" width="120" height="60" as="geometry" />
        </mxCell>
        <mxCell id="lkrJeqDwDnSgzOYhjCxq-44" value="" style="endArrow=classic;html=1;entryX=0;entryY=0;entryDx=0;entryDy=52.5;entryPerimeter=0;exitX=1.036;exitY=0.571;exitDx=0;exitDy=0;exitPerimeter=0;" parent="lkrJeqDwDnSgzOYhjCxq-1" source="lkrJeqDwDnSgzOYhjCxq-24" target="lkrJeqDwDnSgzOYhjCxq-30" edge="1">
          <mxGeometry width="50" height="50" relative="1" as="geometry">
            <mxPoint x="740" y="270" as="sourcePoint" />
            <mxPoint x="790" y="220" as="targetPoint" />
          </mxGeometry>
        </mxCell>
        <mxCell id="lkrJeqDwDnSgzOYhjCxq-45" value="DTS实时同步&lt;br&gt;一致性校验" style="edgeLabel;html=1;align=center;verticalAlign=middle;resizable=0;points=[];" parent="lkrJeqDwDnSgzOYhjCxq-44" vertex="1" connectable="0">
          <mxGeometry x="-0.094" y="2" relative="1" as="geometry">
            <mxPoint as="offset" />
          </mxGeometry>
        </mxCell>
        <mxCell id="lkrJeqDwDnSgzOYhjCxq-46" value="" style="endArrow=classic;startArrow=classic;html=1;entryX=0.5;entryY=1;entryDx=0;entryDy=0;exitX=0.5;exitY=0;exitDx=0;exitDy=0;" parent="lkrJeqDwDnSgzOYhjCxq-1" source="lkrJeqDwDnSgzOYhjCxq-36" target="lkrJeqDwDnSgzOYhjCxq-43" edge="1">
          <mxGeometry width="50" height="50" relative="1" as="geometry">
            <mxPoint x="760" y="200" as="sourcePoint" />
            <mxPoint x="810" y="150" as="targetPoint" />
          </mxGeometry>
        </mxCell>
        <mxCell id="lkrJeqDwDnSgzOYhjCxq-47" value="" style="endArrow=classic;html=1;entryX=0.5;entryY=0;entryDx=0;entryDy=0;" parent="lkrJeqDwDnSgzOYhjCxq-1" source="lkrJeqDwDnSgzOYhjCxq-37" target="lkrJeqDwDnSgzOYhjCxq-34" edge="1">
          <mxGeometry width="50" height="50" relative="1" as="geometry">
            <mxPoint x="760" y="200" as="sourcePoint" />
            <mxPoint x="810" y="150" as="targetPoint" />
          </mxGeometry>
        </mxCell>
        <mxCell id="lkrJeqDwDnSgzOYhjCxq-48" value="" style="endArrow=classic;html=1;entryX=0.5;entryY=0;entryDx=0;entryDy=0;exitX=0.5;exitY=1;exitDx=0;exitDy=0;" parent="lkrJeqDwDnSgzOYhjCxq-1" source="lkrJeqDwDnSgzOYhjCxq-34" target="lkrJeqDwDnSgzOYhjCxq-33" edge="1">
          <mxGeometry width="50" height="50" relative="1" as="geometry">
            <mxPoint x="1036" y="280" as="sourcePoint" />
            <mxPoint x="1036" y="340" as="targetPoint" />
          </mxGeometry>
        </mxCell>
        <mxCell id="lkrJeqDwDnSgzOYhjCxq-51" value="" style="edgeStyle=orthogonalEdgeStyle;rounded=0;orthogonalLoop=1;jettySize=auto;html=1;" parent="lkrJeqDwDnSgzOYhjCxq-1" edge="1">
          <mxGeometry relative="1" as="geometry">
            <mxPoint x="1389.4099999999996" y="270" as="sourcePoint" />
            <mxPoint x="1389.4099999999996" y="330" as="targetPoint" />
            <Array as="points">
              <mxPoint x="1389.41" y="270" />
            </Array>
          </mxGeometry>
        </mxCell>
        <mxCell id="lkrJeqDwDnSgzOYhjCxq-52" value="" style="endArrow=classic;html=1;entryX=0.5;entryY=0;entryDx=0;entryDy=0;exitX=0.5;exitY=1;exitDx=0;exitDy=0;" parent="lkrJeqDwDnSgzOYhjCxq-1" edge="1">
          <mxGeometry width="50" height="50" relative="1" as="geometry">
            <mxPoint x="1389.4099999999996" y="400.9999999999998" as="sourcePoint" />
            <mxPoint x="1389.4099999999996" y="451" as="targetPoint" />
          </mxGeometry>
        </mxCell>
        <mxCell id="lkrJeqDwDnSgzOYhjCxq-53" value="机房B Active" style="rounded=1;whiteSpace=wrap;html=1;verticalAlign=top;" parent="lkrJeqDwDnSgzOYhjCxq-1" vertex="1">
          <mxGeometry x="1946" y="180" width="230" height="430" as="geometry" />
        </mxCell>
        <mxCell id="lkrJeqDwDnSgzOYhjCxq-54" value="" style="rounded=1;whiteSpace=wrap;html=1;" parent="lkrJeqDwDnSgzOYhjCxq-1" vertex="1">
          <mxGeometry x="1956" y="450" width="210" height="130" as="geometry" />
        </mxCell>
        <mxCell id="lkrJeqDwDnSgzOYhjCxq-55" value="机房A Active" style="rounded=1;whiteSpace=wrap;html=1;verticalAlign=top;" parent="lkrJeqDwDnSgzOYhjCxq-1" vertex="1">
          <mxGeometry x="1586" y="180" width="230" height="430" as="geometry" />
        </mxCell>
        <mxCell id="lkrJeqDwDnSgzOYhjCxq-56" value="" style="rounded=1;whiteSpace=wrap;html=1;" parent="lkrJeqDwDnSgzOYhjCxq-1" vertex="1">
          <mxGeometry x="1597" y="450" width="210" height="130" as="geometry" />
        </mxCell>
        <mxCell id="lkrJeqDwDnSgzOYhjCxq-57" value="RDS-主" style="shape=cylinder3;whiteSpace=wrap;html=1;boundedLbl=1;backgroundOutline=1;size=15;" parent="lkrJeqDwDnSgzOYhjCxq-1" vertex="1">
          <mxGeometry x="1726" y="475" width="60" height="80" as="geometry" />
        </mxCell>
        <mxCell id="lkrJeqDwDnSgzOYhjCxq-58" value="RDS-从" style="shape=cylinder3;whiteSpace=wrap;html=1;boundedLbl=1;backgroundOutline=1;size=15;" parent="lkrJeqDwDnSgzOYhjCxq-1" vertex="1">
          <mxGeometry x="1606" y="475" width="60" height="80" as="geometry" />
        </mxCell>
        <mxCell id="lkrJeqDwDnSgzOYhjCxq-59" value="" style="endArrow=classic;html=1;entryX=1;entryY=0.5;entryDx=0;entryDy=0;entryPerimeter=0;exitX=0;exitY=0.5;exitDx=0;exitDy=0;exitPerimeter=0;" parent="lkrJeqDwDnSgzOYhjCxq-1" source="lkrJeqDwDnSgzOYhjCxq-57" target="lkrJeqDwDnSgzOYhjCxq-58" edge="1">
          <mxGeometry width="50" height="50" relative="1" as="geometry">
            <mxPoint x="1766" y="585" as="sourcePoint" />
            <mxPoint x="1816" y="535" as="targetPoint" />
          </mxGeometry>
        </mxCell>
        <mxCell id="lkrJeqDwDnSgzOYhjCxq-60" value="RDS-从" style="shape=cylinder3;whiteSpace=wrap;html=1;boundedLbl=1;backgroundOutline=1;size=15;" parent="lkrJeqDwDnSgzOYhjCxq-1" vertex="1">
          <mxGeometry x="2086" y="470" width="60" height="80" as="geometry" />
        </mxCell>
        <mxCell id="lkrJeqDwDnSgzOYhjCxq-61" value="RDS-主" style="shape=cylinder3;whiteSpace=wrap;html=1;boundedLbl=1;backgroundOutline=1;size=15;" parent="lkrJeqDwDnSgzOYhjCxq-1" vertex="1">
          <mxGeometry x="1966" y="470" width="60" height="80" as="geometry" />
        </mxCell>
        <mxCell id="lkrJeqDwDnSgzOYhjCxq-62" value="" style="endArrow=classic;html=1;entryX=0;entryY=0.5;entryDx=0;entryDy=0;entryPerimeter=0;exitX=1;exitY=0.5;exitDx=0;exitDy=0;exitPerimeter=0;" parent="lkrJeqDwDnSgzOYhjCxq-1" source="lkrJeqDwDnSgzOYhjCxq-61" target="lkrJeqDwDnSgzOYhjCxq-60" edge="1">
          <mxGeometry width="50" height="50" relative="1" as="geometry">
            <mxPoint x="1406" y="400" as="sourcePoint" />
            <mxPoint x="1456" y="350" as="targetPoint" />
          </mxGeometry>
        </mxCell>
        <mxCell id="lkrJeqDwDnSgzOYhjCxq-63" value="DRDS集群" style="rounded=1;whiteSpace=wrap;html=1;" parent="lkrJeqDwDnSgzOYhjCxq-1" vertex="1">
          <mxGeometry x="1637" y="330" width="130" height="70" as="geometry" />
        </mxCell>
        <mxCell id="lkrJeqDwDnSgzOYhjCxq-81" value="" style="edgeStyle=orthogonalEdgeStyle;rounded=0;orthogonalLoop=1;jettySize=auto;html=1;" parent="lkrJeqDwDnSgzOYhjCxq-1" source="lkrJeqDwDnSgzOYhjCxq-64" target="lkrJeqDwDnSgzOYhjCxq-68" edge="1">
          <mxGeometry relative="1" as="geometry" />
        </mxCell>
        <mxCell id="lkrJeqDwDnSgzOYhjCxq-64" value="DRDS集群" style="rounded=1;whiteSpace=wrap;html=1;" parent="lkrJeqDwDnSgzOYhjCxq-1" vertex="1">
          <mxGeometry x="2001" y="330" width="130" height="70" as="geometry" />
        </mxCell>
        <mxCell id="lkrJeqDwDnSgzOYhjCxq-65" value="DNS域名解析" style="rounded=1;whiteSpace=wrap;html=1;" parent="lkrJeqDwDnSgzOYhjCxq-1" vertex="1">
          <mxGeometry x="1816" y="100" width="120" height="50" as="geometry" />
        </mxCell>
        <mxCell id="lkrJeqDwDnSgzOYhjCxq-66" value="" style="edgeStyle=orthogonalEdgeStyle;rounded=0;orthogonalLoop=1;jettySize=auto;html=1;" parent="lkrJeqDwDnSgzOYhjCxq-1" source="lkrJeqDwDnSgzOYhjCxq-67" target="lkrJeqDwDnSgzOYhjCxq-63" edge="1">
          <mxGeometry relative="1" as="geometry" />
        </mxCell>
        <mxCell id="lkrJeqDwDnSgzOYhjCxq-67" value="LB" style="rounded=1;whiteSpace=wrap;html=1;" parent="lkrJeqDwDnSgzOYhjCxq-1" vertex="1">
          <mxGeometry x="1642" y="220" width="120" height="50" as="geometry" />
        </mxCell>
        <mxCell id="lkrJeqDwDnSgzOYhjCxq-68" value="LB" style="rounded=1;whiteSpace=wrap;html=1;" parent="lkrJeqDwDnSgzOYhjCxq-1" vertex="1">
          <mxGeometry x="2006" y="220" width="120" height="50" as="geometry" />
        </mxCell>
        <mxCell id="lkrJeqDwDnSgzOYhjCxq-69" style="edgeStyle=orthogonalEdgeStyle;rounded=0;orthogonalLoop=1;jettySize=auto;html=1;exitX=0.25;exitY=1;exitDx=0;exitDy=0;entryX=0.5;entryY=0;entryDx=0;entryDy=0;" parent="lkrJeqDwDnSgzOYhjCxq-1" source="lkrJeqDwDnSgzOYhjCxq-65" target="lkrJeqDwDnSgzOYhjCxq-67" edge="1">
          <mxGeometry relative="1" as="geometry">
            <mxPoint x="1110" y="350" as="sourcePoint" />
            <mxPoint x="1048.5" y="395" as="targetPoint" />
            <Array as="points">
              <mxPoint x="1846" y="160" />
              <mxPoint x="1702" y="160" />
            </Array>
          </mxGeometry>
        </mxCell>
        <mxCell id="lkrJeqDwDnSgzOYhjCxq-70" style="edgeStyle=orthogonalEdgeStyle;rounded=0;orthogonalLoop=1;jettySize=auto;html=1;exitX=0.75;exitY=1;exitDx=0;exitDy=0;" parent="lkrJeqDwDnSgzOYhjCxq-1" source="lkrJeqDwDnSgzOYhjCxq-65" target="lkrJeqDwDnSgzOYhjCxq-68" edge="1">
          <mxGeometry relative="1" as="geometry">
            <mxPoint x="1170" y="350" as="sourcePoint" />
            <mxPoint x="1296" y="400" as="targetPoint" />
            <Array as="points">
              <mxPoint x="1906" y="160" />
              <mxPoint x="2066" y="160" />
            </Array>
          </mxGeometry>
        </mxCell>
        <mxCell id="lkrJeqDwDnSgzOYhjCxq-71" value="应用程序" style="rounded=1;whiteSpace=wrap;html=1;" parent="lkrJeqDwDnSgzOYhjCxq-1" vertex="1">
          <mxGeometry x="1816" width="120" height="60" as="geometry" />
        </mxCell>
        <mxCell id="lkrJeqDwDnSgzOYhjCxq-74" value="" style="endArrow=classic;startArrow=classic;html=1;entryX=0.5;entryY=1;entryDx=0;entryDy=0;exitX=0.5;exitY=0;exitDx=0;exitDy=0;" parent="lkrJeqDwDnSgzOYhjCxq-1" source="lkrJeqDwDnSgzOYhjCxq-65" target="lkrJeqDwDnSgzOYhjCxq-71" edge="1">
          <mxGeometry width="50" height="50" relative="1" as="geometry">
            <mxPoint x="1436" y="200" as="sourcePoint" />
            <mxPoint x="1486" y="150" as="targetPoint" />
          </mxGeometry>
        </mxCell>
        <mxCell id="lkrJeqDwDnSgzOYhjCxq-75" value="" style="endArrow=classic;html=1;entryX=0.5;entryY=0;entryDx=0;entryDy=0;" parent="lkrJeqDwDnSgzOYhjCxq-1" source="lkrJeqDwDnSgzOYhjCxq-67" target="lkrJeqDwDnSgzOYhjCxq-63" edge="1">
          <mxGeometry width="50" height="50" relative="1" as="geometry">
            <mxPoint x="1436" y="200" as="sourcePoint" />
            <mxPoint x="1486" y="150" as="targetPoint" />
          </mxGeometry>
        </mxCell>
        <mxCell id="lkrJeqDwDnSgzOYhjCxq-76" value="" style="endArrow=classic;html=1;entryX=0.5;entryY=0;entryDx=0;entryDy=0;exitX=0.5;exitY=1;exitDx=0;exitDy=0;" parent="lkrJeqDwDnSgzOYhjCxq-1" source="lkrJeqDwDnSgzOYhjCxq-63" target="lkrJeqDwDnSgzOYhjCxq-56" edge="1">
          <mxGeometry width="50" height="50" relative="1" as="geometry">
            <mxPoint x="1712" y="280" as="sourcePoint" />
            <mxPoint x="1712" y="340" as="targetPoint" />
          </mxGeometry>
        </mxCell>
        <mxCell id="lkrJeqDwDnSgzOYhjCxq-77" value="" style="edgeStyle=orthogonalEdgeStyle;rounded=0;orthogonalLoop=1;jettySize=auto;html=1;" parent="lkrJeqDwDnSgzOYhjCxq-1" edge="1">
          <mxGeometry relative="1" as="geometry">
            <mxPoint x="2065.41" y="270" as="sourcePoint" />
            <mxPoint x="2065.41" y="330" as="targetPoint" />
            <Array as="points">
              <mxPoint x="2065.41" y="270" />
            </Array>
          </mxGeometry>
        </mxCell>
        <mxCell id="lkrJeqDwDnSgzOYhjCxq-78" value="" style="endArrow=classic;html=1;entryX=0.5;entryY=0;entryDx=0;entryDy=0;exitX=0.5;exitY=1;exitDx=0;exitDy=0;" parent="lkrJeqDwDnSgzOYhjCxq-1" edge="1">
          <mxGeometry width="50" height="50" relative="1" as="geometry">
            <mxPoint x="2065.41" y="400.9999999999998" as="sourcePoint" />
            <mxPoint x="2065.41" y="451" as="targetPoint" />
          </mxGeometry>
        </mxCell>
        <mxCell id="lkrJeqDwDnSgzOYhjCxq-79" value="" style="endArrow=classic;html=1;" parent="lkrJeqDwDnSgzOYhjCxq-1" edge="1">
          <mxGeometry width="50" height="50" relative="1" as="geometry">
            <mxPoint x="1696" y="270" as="sourcePoint" />
            <mxPoint x="2066" y="330" as="targetPoint" />
          </mxGeometry>
        </mxCell>
        <mxCell id="lkrJeqDwDnSgzOYhjCxq-82" value="" style="endArrow=classic;html=1;" parent="lkrJeqDwDnSgzOYhjCxq-1" edge="1">
          <mxGeometry width="50" height="50" relative="1" as="geometry">
            <mxPoint x="2066" y="270" as="sourcePoint" />
            <mxPoint x="1706" y="330" as="targetPoint" />
          </mxGeometry>
        </mxCell>
        <mxCell id="lkrJeqDwDnSgzOYhjCxq-83" value="" style="endArrow=classic;startArrow=classic;html=1;exitX=1.009;exitY=0.795;exitDx=0;exitDy=0;exitPerimeter=0;" parent="lkrJeqDwDnSgzOYhjCxq-1" source="lkrJeqDwDnSgzOYhjCxq-55" edge="1">
          <mxGeometry width="50" height="50" relative="1" as="geometry">
            <mxPoint x="1896" y="570" as="sourcePoint" />
            <mxPoint x="1946" y="520" as="targetPoint" />
          </mxGeometry>
        </mxCell>
        <mxCell id="lkrJeqDwDnSgzOYhjCxq-84" value="DTS实时双向同步&lt;br&gt;一致性校验" style="edgeLabel;html=1;align=center;verticalAlign=middle;resizable=0;points=[];" parent="lkrJeqDwDnSgzOYhjCxq-83" vertex="1" connectable="0">
          <mxGeometry x="-0.2513" y="-3" relative="1" as="geometry">
            <mxPoint x="13.89" as="offset" />
          </mxGeometry>
        </mxCell>
      </root>
    </mxGraphModel>
  </diagram>
  <diagram id="UtBgzvARiOpI2s9ApbRF" name="Page-4">
    <mxGraphModel dx="1270" dy="784" grid="1" gridSize="10" guides="1" tooltips="1" connect="1" arrows="1" fold="1" page="1" pageScale="1" pageWidth="827" pageHeight="1169" math="0" shadow="0">
      <root>
        <mxCell id="IEV2sa-SZY_EgYzh22LS-0" />
        <mxCell id="IEV2sa-SZY_EgYzh22LS-1" parent="IEV2sa-SZY_EgYzh22LS-0" />
        <mxCell id="IEV2sa-SZY_EgYzh22LS-2" value="机房B Standby" style="rounded=1;whiteSpace=wrap;html=1;verticalAlign=top;" parent="IEV2sa-SZY_EgYzh22LS-1" vertex="1">
          <mxGeometry x="1270" y="180" width="230" height="430" as="geometry" />
        </mxCell>
        <mxCell id="IEV2sa-SZY_EgYzh22LS-3" value="" style="rounded=1;whiteSpace=wrap;html=1;" parent="IEV2sa-SZY_EgYzh22LS-1" vertex="1">
          <mxGeometry x="1280" y="450" width="210" height="130" as="geometry" />
        </mxCell>
        <mxCell id="IEV2sa-SZY_EgYzh22LS-4" value="机房A Active" style="rounded=1;whiteSpace=wrap;html=1;verticalAlign=top;" parent="IEV2sa-SZY_EgYzh22LS-1" vertex="1">
          <mxGeometry x="910" y="180" width="230" height="430" as="geometry" />
        </mxCell>
        <mxCell id="IEV2sa-SZY_EgYzh22LS-5" value="" style="rounded=1;whiteSpace=wrap;html=1;" parent="IEV2sa-SZY_EgYzh22LS-1" vertex="1">
          <mxGeometry x="921" y="450" width="210" height="130" as="geometry" />
        </mxCell>
        <mxCell id="IEV2sa-SZY_EgYzh22LS-6" value="控制面" style="rounded=1;whiteSpace=wrap;html=1;align=left;" parent="IEV2sa-SZY_EgYzh22LS-1" vertex="1">
          <mxGeometry x="327" y="520" width="470" height="80" as="geometry" />
        </mxCell>
        <mxCell id="IEV2sa-SZY_EgYzh22LS-7" style="edgeStyle=orthogonalEdgeStyle;rounded=0;orthogonalLoop=1;jettySize=auto;html=1;exitX=0.5;exitY=1;exitDx=0;exitDy=0;entryX=0.75;entryY=0;entryDx=0;entryDy=0;" parent="IEV2sa-SZY_EgYzh22LS-1" source="IEV2sa-SZY_EgYzh22LS-8" target="IEV2sa-SZY_EgYzh22LS-20" edge="1">
          <mxGeometry relative="1" as="geometry" />
        </mxCell>
        <mxCell id="IEV2sa-SZY_EgYzh22LS-8" value="机房B Active" style="rounded=1;whiteSpace=wrap;html=1;verticalAlign=top;" parent="IEV2sa-SZY_EgYzh22LS-1" vertex="1">
          <mxGeometry x="627" y="200" width="200" height="260" as="geometry" />
        </mxCell>
        <mxCell id="IEV2sa-SZY_EgYzh22LS-9" style="edgeStyle=orthogonalEdgeStyle;rounded=0;orthogonalLoop=1;jettySize=auto;html=1;exitX=0.75;exitY=1;exitDx=0;exitDy=0;entryX=0.5;entryY=0;entryDx=0;entryDy=0;" parent="IEV2sa-SZY_EgYzh22LS-1" source="IEV2sa-SZY_EgYzh22LS-10" target="IEV2sa-SZY_EgYzh22LS-20" edge="1">
          <mxGeometry relative="1" as="geometry" />
        </mxCell>
        <mxCell id="IEV2sa-SZY_EgYzh22LS-10" value="机房A Active" style="rounded=1;whiteSpace=wrap;html=1;verticalAlign=top;" parent="IEV2sa-SZY_EgYzh22LS-1" vertex="1">
          <mxGeometry x="307" y="200" width="230" height="255" as="geometry" />
        </mxCell>
        <mxCell id="IEV2sa-SZY_EgYzh22LS-11" style="edgeStyle=orthogonalEdgeStyle;rounded=0;orthogonalLoop=1;jettySize=auto;html=1;exitX=1;exitY=0.5;exitDx=0;exitDy=0;exitPerimeter=0;entryX=0;entryY=0;entryDx=0;entryDy=52.5;entryPerimeter=0;" parent="IEV2sa-SZY_EgYzh22LS-1" source="IEV2sa-SZY_EgYzh22LS-15" target="IEV2sa-SZY_EgYzh22LS-18" edge="1">
          <mxGeometry relative="1" as="geometry">
            <Array as="points">
              <mxPoint x="507" y="350" />
              <mxPoint x="592" y="350" />
              <mxPoint x="592" y="413" />
            </Array>
          </mxGeometry>
        </mxCell>
        <mxCell id="IEV2sa-SZY_EgYzh22LS-12" value="Replica" style="edgeLabel;html=1;align=center;verticalAlign=middle;resizable=0;points=[];" parent="IEV2sa-SZY_EgYzh22LS-11" vertex="1" connectable="0">
          <mxGeometry x="0.4046" y="1" relative="1" as="geometry">
            <mxPoint as="offset" />
          </mxGeometry>
        </mxCell>
        <mxCell id="IEV2sa-SZY_EgYzh22LS-13" style="edgeStyle=orthogonalEdgeStyle;rounded=0;orthogonalLoop=1;jettySize=auto;html=1;exitX=1;exitY=0;exitDx=0;exitDy=52.5;exitPerimeter=0;entryX=0;entryY=0.5;entryDx=0;entryDy=0;entryPerimeter=0;" parent="IEV2sa-SZY_EgYzh22LS-1" source="IEV2sa-SZY_EgYzh22LS-15" target="IEV2sa-SZY_EgYzh22LS-17" edge="1">
          <mxGeometry relative="1" as="geometry">
            <Array as="points">
              <mxPoint x="507" y="330" />
              <mxPoint x="592" y="330" />
              <mxPoint x="592" y="300" />
            </Array>
          </mxGeometry>
        </mxCell>
        <mxCell id="IEV2sa-SZY_EgYzh22LS-14" value="Replica" style="edgeLabel;html=1;align=center;verticalAlign=middle;resizable=0;points=[];" parent="IEV2sa-SZY_EgYzh22LS-13" vertex="1" connectable="0">
          <mxGeometry x="0.3389" relative="1" as="geometry">
            <mxPoint as="offset" />
          </mxGeometry>
        </mxCell>
        <mxCell id="IEV2sa-SZY_EgYzh22LS-15" value="云数据库-主" style="shape=cylinder3;whiteSpace=wrap;html=1;boundedLbl=1;backgroundOutline=1;size=15;" parent="IEV2sa-SZY_EgYzh22LS-1" vertex="1">
          <mxGeometry x="447" y="290" width="73" height="80" as="geometry" />
        </mxCell>
        <mxCell id="IEV2sa-SZY_EgYzh22LS-16" value="云数据库-从" style="shape=cylinder3;whiteSpace=wrap;html=1;boundedLbl=1;backgroundOutline=1;size=15;" parent="IEV2sa-SZY_EgYzh22LS-1" vertex="1">
          <mxGeometry x="327" y="290" width="73" height="80" as="geometry" />
        </mxCell>
        <mxCell id="IEV2sa-SZY_EgYzh22LS-17" value="云数据库-从" style="shape=cylinder3;whiteSpace=wrap;html=1;boundedLbl=1;backgroundOutline=1;size=15;" parent="IEV2sa-SZY_EgYzh22LS-1" vertex="1">
          <mxGeometry x="697" y="260" width="73" height="80" as="geometry" />
        </mxCell>
        <mxCell id="IEV2sa-SZY_EgYzh22LS-18" value="云数据库-从" style="shape=cylinder3;whiteSpace=wrap;html=1;boundedLbl=1;backgroundOutline=1;size=15;" parent="IEV2sa-SZY_EgYzh22LS-1" vertex="1">
          <mxGeometry x="697" y="360" width="73" height="80" as="geometry" />
        </mxCell>
        <mxCell id="IEV2sa-SZY_EgYzh22LS-19" value="" style="endArrow=classic;html=1;entryX=1;entryY=0.5;entryDx=0;entryDy=0;entryPerimeter=0;exitX=0;exitY=0.5;exitDx=0;exitDy=0;exitPerimeter=0;" parent="IEV2sa-SZY_EgYzh22LS-1" source="IEV2sa-SZY_EgYzh22LS-15" target="IEV2sa-SZY_EgYzh22LS-16" edge="1">
          <mxGeometry width="50" height="50" relative="1" as="geometry">
            <mxPoint x="487" y="400" as="sourcePoint" />
            <mxPoint x="537" y="350" as="targetPoint" />
          </mxGeometry>
        </mxCell>
        <mxCell id="IEV2sa-SZY_EgYzh22LS-20" value="HA" style="rounded=1;whiteSpace=wrap;html=1;" parent="IEV2sa-SZY_EgYzh22LS-1" vertex="1">
          <mxGeometry x="487" y="530" width="120" height="60" as="geometry" />
        </mxCell>
        <mxCell id="IEV2sa-SZY_EgYzh22LS-21" style="edgeStyle=orthogonalEdgeStyle;rounded=0;orthogonalLoop=1;jettySize=auto;html=1;exitX=0.25;exitY=1;exitDx=0;exitDy=0;entryX=0.75;entryY=0;entryDx=0;entryDy=0;" parent="IEV2sa-SZY_EgYzh22LS-1" source="IEV2sa-SZY_EgYzh22LS-23" target="IEV2sa-SZY_EgYzh22LS-10" edge="1">
          <mxGeometry relative="1" as="geometry" />
        </mxCell>
        <mxCell id="IEV2sa-SZY_EgYzh22LS-22" style="edgeStyle=orthogonalEdgeStyle;rounded=0;orthogonalLoop=1;jettySize=auto;html=1;exitX=0.75;exitY=1;exitDx=0;exitDy=0;dashed=1;" parent="IEV2sa-SZY_EgYzh22LS-1" source="IEV2sa-SZY_EgYzh22LS-23" target="IEV2sa-SZY_EgYzh22LS-8" edge="1">
          <mxGeometry relative="1" as="geometry" />
        </mxCell>
        <mxCell id="IEV2sa-SZY_EgYzh22LS-23" value="LB" style="rounded=1;whiteSpace=wrap;html=1;" parent="IEV2sa-SZY_EgYzh22LS-1" vertex="1">
          <mxGeometry x="527" y="110" width="120" height="50" as="geometry" />
        </mxCell>
        <mxCell id="IEV2sa-SZY_EgYzh22LS-24" value="应用程序" style="rounded=1;whiteSpace=wrap;html=1;" parent="IEV2sa-SZY_EgYzh22LS-1" vertex="1">
          <mxGeometry x="527" y="10" width="120" height="60" as="geometry" />
        </mxCell>
        <mxCell id="IEV2sa-SZY_EgYzh22LS-25" value="" style="endArrow=classic;startArrow=classic;html=1;exitX=0.5;exitY=0;exitDx=0;exitDy=0;entryX=0.5;entryY=1;entryDx=0;entryDy=0;" parent="IEV2sa-SZY_EgYzh22LS-1" source="IEV2sa-SZY_EgYzh22LS-23" target="IEV2sa-SZY_EgYzh22LS-24" edge="1">
          <mxGeometry width="50" height="50" relative="1" as="geometry">
            <mxPoint x="607" y="80" as="sourcePoint" />
            <mxPoint x="657" y="30" as="targetPoint" />
          </mxGeometry>
        </mxCell>
        <mxCell id="IEV2sa-SZY_EgYzh22LS-26" value="云数据库-主" style="shape=cylinder3;whiteSpace=wrap;html=1;boundedLbl=1;backgroundOutline=1;size=15;" parent="IEV2sa-SZY_EgYzh22LS-1" vertex="1">
          <mxGeometry x="1050" y="478" width="70" height="75" as="geometry" />
        </mxCell>
        <mxCell id="IEV2sa-SZY_EgYzh22LS-27" value="云数据库-从" style="shape=cylinder3;whiteSpace=wrap;html=1;boundedLbl=1;backgroundOutline=1;size=15;" parent="IEV2sa-SZY_EgYzh22LS-1" vertex="1">
          <mxGeometry x="930" y="478" width="70" height="75" as="geometry" />
        </mxCell>
        <mxCell id="IEV2sa-SZY_EgYzh22LS-28" value="" style="endArrow=classic;html=1;entryX=1;entryY=0.5;entryDx=0;entryDy=0;entryPerimeter=0;exitX=0;exitY=0.5;exitDx=0;exitDy=0;exitPerimeter=0;" parent="IEV2sa-SZY_EgYzh22LS-1" source="IEV2sa-SZY_EgYzh22LS-26" target="IEV2sa-SZY_EgYzh22LS-27" edge="1">
          <mxGeometry width="50" height="50" relative="1" as="geometry">
            <mxPoint x="1090" y="585" as="sourcePoint" />
            <mxPoint x="1140" y="535" as="targetPoint" />
          </mxGeometry>
        </mxCell>
        <mxCell id="IEV2sa-SZY_EgYzh22LS-29" value="云数据库-从" style="shape=cylinder3;whiteSpace=wrap;html=1;boundedLbl=1;backgroundOutline=1;size=15;" parent="IEV2sa-SZY_EgYzh22LS-1" vertex="1">
          <mxGeometry x="1410" y="470" width="70" height="80" as="geometry" />
        </mxCell>
        <mxCell id="IEV2sa-SZY_EgYzh22LS-30" value="云数据库-主" style="shape=cylinder3;whiteSpace=wrap;html=1;boundedLbl=1;backgroundOutline=1;size=15;" parent="IEV2sa-SZY_EgYzh22LS-1" vertex="1">
          <mxGeometry x="1290" y="470" width="70" height="80" as="geometry" />
        </mxCell>
        <mxCell id="IEV2sa-SZY_EgYzh22LS-31" value="" style="endArrow=classic;html=1;entryX=0;entryY=0.5;entryDx=0;entryDy=0;entryPerimeter=0;exitX=1;exitY=0.5;exitDx=0;exitDy=0;exitPerimeter=0;" parent="IEV2sa-SZY_EgYzh22LS-1" source="IEV2sa-SZY_EgYzh22LS-30" target="IEV2sa-SZY_EgYzh22LS-29" edge="1">
          <mxGeometry width="50" height="50" relative="1" as="geometry">
            <mxPoint x="730" y="400" as="sourcePoint" />
            <mxPoint x="780" y="350" as="targetPoint" />
          </mxGeometry>
        </mxCell>
        <mxCell id="IEV2sa-SZY_EgYzh22LS-32" value="DRDS集群" style="rounded=1;whiteSpace=wrap;html=1;" parent="IEV2sa-SZY_EgYzh22LS-1" vertex="1">
          <mxGeometry x="961" y="330" width="130" height="70" as="geometry" />
        </mxCell>
        <mxCell id="IEV2sa-SZY_EgYzh22LS-33" value="DRDS集群" style="rounded=1;whiteSpace=wrap;html=1;" parent="IEV2sa-SZY_EgYzh22LS-1" vertex="1">
          <mxGeometry x="1325" y="330" width="130" height="70" as="geometry" />
        </mxCell>
        <mxCell id="IEV2sa-SZY_EgYzh22LS-34" value="DNS域名解析" style="rounded=1;whiteSpace=wrap;html=1;" parent="IEV2sa-SZY_EgYzh22LS-1" vertex="1">
          <mxGeometry x="1140" y="100" width="120" height="50" as="geometry" />
        </mxCell>
        <mxCell id="IEV2sa-SZY_EgYzh22LS-35" value="" style="edgeStyle=orthogonalEdgeStyle;rounded=0;orthogonalLoop=1;jettySize=auto;html=1;" parent="IEV2sa-SZY_EgYzh22LS-1" source="IEV2sa-SZY_EgYzh22LS-36" target="IEV2sa-SZY_EgYzh22LS-32" edge="1">
          <mxGeometry relative="1" as="geometry" />
        </mxCell>
        <mxCell id="IEV2sa-SZY_EgYzh22LS-36" value="LB" style="rounded=1;whiteSpace=wrap;html=1;" parent="IEV2sa-SZY_EgYzh22LS-1" vertex="1">
          <mxGeometry x="966" y="220" width="120" height="50" as="geometry" />
        </mxCell>
        <mxCell id="IEV2sa-SZY_EgYzh22LS-37" value="LB" style="rounded=1;whiteSpace=wrap;html=1;" parent="IEV2sa-SZY_EgYzh22LS-1" vertex="1">
          <mxGeometry x="1330" y="220" width="120" height="50" as="geometry" />
        </mxCell>
        <mxCell id="IEV2sa-SZY_EgYzh22LS-38" style="edgeStyle=orthogonalEdgeStyle;rounded=0;orthogonalLoop=1;jettySize=auto;html=1;exitX=0.25;exitY=1;exitDx=0;exitDy=0;entryX=0.5;entryY=0;entryDx=0;entryDy=0;" parent="IEV2sa-SZY_EgYzh22LS-1" source="IEV2sa-SZY_EgYzh22LS-34" target="IEV2sa-SZY_EgYzh22LS-36" edge="1">
          <mxGeometry relative="1" as="geometry">
            <mxPoint x="434" y="350" as="sourcePoint" />
            <mxPoint x="372.5" y="395" as="targetPoint" />
            <Array as="points">
              <mxPoint x="1170" y="160" />
              <mxPoint x="1026" y="160" />
            </Array>
          </mxGeometry>
        </mxCell>
        <mxCell id="IEV2sa-SZY_EgYzh22LS-39" style="edgeStyle=orthogonalEdgeStyle;rounded=0;orthogonalLoop=1;jettySize=auto;html=1;exitX=0.75;exitY=1;exitDx=0;exitDy=0;dashed=1;" parent="IEV2sa-SZY_EgYzh22LS-1" source="IEV2sa-SZY_EgYzh22LS-34" target="IEV2sa-SZY_EgYzh22LS-37" edge="1">
          <mxGeometry relative="1" as="geometry">
            <mxPoint x="494" y="350" as="sourcePoint" />
            <mxPoint x="620" y="400" as="targetPoint" />
            <Array as="points">
              <mxPoint x="1230" y="160" />
              <mxPoint x="1390" y="160" />
            </Array>
          </mxGeometry>
        </mxCell>
        <mxCell id="IEV2sa-SZY_EgYzh22LS-40" value="应用程序" style="rounded=1;whiteSpace=wrap;html=1;" parent="IEV2sa-SZY_EgYzh22LS-1" vertex="1">
          <mxGeometry x="1140" width="120" height="60" as="geometry" />
        </mxCell>
        <mxCell id="IEV2sa-SZY_EgYzh22LS-41" value="" style="endArrow=classic;html=1;entryX=0;entryY=0;entryDx=0;entryDy=52.5;entryPerimeter=0;exitX=1.036;exitY=0.571;exitDx=0;exitDy=0;exitPerimeter=0;" parent="IEV2sa-SZY_EgYzh22LS-1" source="IEV2sa-SZY_EgYzh22LS-26" target="IEV2sa-SZY_EgYzh22LS-30" edge="1">
          <mxGeometry width="50" height="50" relative="1" as="geometry">
            <mxPoint x="740" y="270" as="sourcePoint" />
            <mxPoint x="790" y="220" as="targetPoint" />
          </mxGeometry>
        </mxCell>
        <mxCell id="IEV2sa-SZY_EgYzh22LS-42" value="DTS实时同步&lt;br&gt;一致性校验" style="edgeLabel;html=1;align=center;verticalAlign=middle;resizable=0;points=[];" parent="IEV2sa-SZY_EgYzh22LS-41" vertex="1" connectable="0">
          <mxGeometry x="-0.094" y="2" relative="1" as="geometry">
            <mxPoint as="offset" />
          </mxGeometry>
        </mxCell>
        <mxCell id="IEV2sa-SZY_EgYzh22LS-43" value="" style="endArrow=classic;startArrow=classic;html=1;entryX=0.5;entryY=1;entryDx=0;entryDy=0;exitX=0.5;exitY=0;exitDx=0;exitDy=0;" parent="IEV2sa-SZY_EgYzh22LS-1" source="IEV2sa-SZY_EgYzh22LS-34" target="IEV2sa-SZY_EgYzh22LS-40" edge="1">
          <mxGeometry width="50" height="50" relative="1" as="geometry">
            <mxPoint x="760" y="200" as="sourcePoint" />
            <mxPoint x="810" y="150" as="targetPoint" />
          </mxGeometry>
        </mxCell>
        <mxCell id="IEV2sa-SZY_EgYzh22LS-44" value="" style="endArrow=classic;html=1;entryX=0.5;entryY=0;entryDx=0;entryDy=0;" parent="IEV2sa-SZY_EgYzh22LS-1" source="IEV2sa-SZY_EgYzh22LS-36" target="IEV2sa-SZY_EgYzh22LS-32" edge="1">
          <mxGeometry width="50" height="50" relative="1" as="geometry">
            <mxPoint x="760" y="200" as="sourcePoint" />
            <mxPoint x="810" y="150" as="targetPoint" />
          </mxGeometry>
        </mxCell>
        <mxCell id="IEV2sa-SZY_EgYzh22LS-45" value="" style="endArrow=classic;html=1;entryX=0.5;entryY=0;entryDx=0;entryDy=0;exitX=0.5;exitY=1;exitDx=0;exitDy=0;" parent="IEV2sa-SZY_EgYzh22LS-1" source="IEV2sa-SZY_EgYzh22LS-32" target="IEV2sa-SZY_EgYzh22LS-5" edge="1">
          <mxGeometry width="50" height="50" relative="1" as="geometry">
            <mxPoint x="1036" y="280" as="sourcePoint" />
            <mxPoint x="1036" y="340" as="targetPoint" />
          </mxGeometry>
        </mxCell>
        <mxCell id="IEV2sa-SZY_EgYzh22LS-46" value="" style="edgeStyle=orthogonalEdgeStyle;rounded=0;orthogonalLoop=1;jettySize=auto;html=1;" parent="IEV2sa-SZY_EgYzh22LS-1" edge="1">
          <mxGeometry relative="1" as="geometry">
            <mxPoint x="1389.4099999999999" y="270" as="sourcePoint" />
            <mxPoint x="1389.4099999999999" y="330" as="targetPoint" />
            <Array as="points">
              <mxPoint x="1389.41" y="270" />
            </Array>
          </mxGeometry>
        </mxCell>
        <mxCell id="IEV2sa-SZY_EgYzh22LS-47" value="" style="endArrow=classic;html=1;entryX=0.5;entryY=0;entryDx=0;entryDy=0;exitX=0.5;exitY=1;exitDx=0;exitDy=0;" parent="IEV2sa-SZY_EgYzh22LS-1" edge="1">
          <mxGeometry width="50" height="50" relative="1" as="geometry">
            <mxPoint x="1389.4099999999999" y="400.9999999999998" as="sourcePoint" />
            <mxPoint x="1389.4099999999999" y="451" as="targetPoint" />
          </mxGeometry>
        </mxCell>
      </root>
    </mxGraphModel>
  </diagram>
</mxfile>
